<?xml version="1.0" encoding="utf-8"?>
<!-- Generator: Adobe Illustrator 25.0.1, SVG Export Plug-In . SVG Version: 6.00 Build 0)  -->
<svg version="1.1" id="Capa_1" xmlns="http://www.w3.org/2000/svg" xmlns:xlink="http://www.w3.org/1999/xlink" x="0px" y="0px"
	 viewBox="0 0 512 512" style="enable-background:new 0 0 512 512;" xml:space="preserve">
<style type="text/css">
	.st0{fill:#FFFFFF;}
</style>
<g>
	<path class="st0" d="M442.2,137l5.5-27.8l-59.4-11.8L256,0l-76,56l-66.8-13.3l-14.6,73.2L0,188.4V512h512V188.4L442.2,137z
		 M468.4,193.6l-41.6,20.9l8.9-44.9L468.4,193.6z M256,37.3l63,46.4l-99.2-19.7L256,37.3z M412.5,132.8l-19.6,98.7L256,300.2
		l-148.6-74.6L136.7,78L412.5,132.8z M79.5,211.6l-35.9-18l46.3-34.1L79.5,211.6z M30,482V220.3l226,113.5l226-113.5V482H30z"/>
	<path class="st0" d="M321.7,175.8l5.9-29.4l49.6,9.9l-5.9,29.4L321.7,175.8z"/>
	<path class="st0" d="M154.4,142.6l5.9-29.4l137.9,27.4l-5.9,29.4L154.4,142.6z"/>
	<path class="st0" d="M142.7,201.4l5.9-29.4l167.3,33.3l-5.9,29.4L142.7,201.4z"/>
</g>
</svg>
