<?xml version="1.0" encoding="utf-8"?>
<!-- Generator: Adobe Illustrator 24.3.0, SVG Export Plug-In . SVG Version: 6.00 Build 0)  -->
<svg version="1.1" id="Capa_1" xmlns="http://www.w3.org/2000/svg" xmlns:xlink="http://www.w3.org/1999/xlink" x="0px" y="0px"
	 viewBox="0 0 384 384" style="enable-background:new 0 0 384 384;" xml:space="preserve">
<style type="text/css">
	.st0{fill:#FFFFFF;}
</style>
<g>
	<g>
		<path class="st0" d="M256,330.7c-53.4,0-99.8-30.3-123-74.7h123v-42.7H119.1c-1.1-6.9-1.8-14.1-1.8-21.3s0.7-14.4,1.8-21.3H256
			V128H133c23.1-44.4,69.4-74.7,123-74.7c34.5,0,65.9,12.6,90.1,33.4L384,49.1C350.1,18.7,305.2,0,256,0
			C172.5,0,101.5,53.4,75.2,128H0v42.7h65.3c-0.9,7-1.3,14.1-1.3,21.3s0.4,14.3,1.3,21.3H0V256h75.2c26.3,74.6,97.3,128,180.8,128
			c49.2,0,94.1-18.7,128-49.1l-37.9-37.8C321.9,318,290.5,330.7,256,330.7z"/>
	</g>
</g>
</svg>
