<?xml version="1.0" encoding="utf-8"?>
<!-- Generator: Adobe Illustrator 24.3.0, SVG Export Plug-In . SVG Version: 6.00 Build 0)  -->
<svg version="1.1" id="Calque_1" xmlns="http://www.w3.org/2000/svg" xmlns:xlink="http://www.w3.org/1999/xlink" x="0px" y="0px"
	 viewBox="0 0 100.3 32.9" style="enable-background:new 0 0 100.3 32.9;" xml:space="preserve">
<style type="text/css">
	.st0{fill:#010202;}
	.st1{fill:#722B2B;}
	.st2{fill:#FFFFFF;stroke:#722B2B;stroke-width:0.8;stroke-miterlimit:10;}
</style>
<g>
	<path class="st0" d="M9.3,25.2c-1,1.5-2.7,2.4-4.6,2.4c-2.9,0-4.6-2-4.6-5.6C0.1,16,3,10.1,9.6,10.1c2.3,0,3.1,1.1,3.4,2.5l-2.2,1
		c-0.3-0.6-0.6-1.3-2-1.3c-3.9,0-5.5,5.5-5.5,9.3c0,2.2,0.8,3.8,2.6,3.8c1.4,0,3.3-1.5,3.7-3.7l0.5-2.7H13l-1.8,9.2
		c-0.5,2.6-2.7,4.7-6,4.7c-2,0-4-0.9-5.2-1.5l1-2.2c1.3,0.5,2.9,1.4,4.5,1.4c1.6,0,2.8-1,3.1-2.1L9.3,25.2z"/>
	<path class="st0" d="M26.1,18.9c0,4.8-2.5,8.7-7,8.7c-3.2,0-4.2-2.1-4.2-4.2c0-4.8,2.5-8.7,7-8.7C25.1,14.7,26.1,16.8,26.1,18.9z
		 M17.8,23.6c0,1.6,0.7,2.1,1.8,2.1c2.2,0,3.5-4.2,3.5-7c0-1.6-0.7-2.1-1.8-2.1C19.1,16.6,17.8,20.8,17.8,23.6z"/>
	<path class="st0" d="M29.2,15.4l2.4-0.6c0.4,0.7,0.5,1.7,0.5,2.5c0,2.3-1.5,4.3-1.5,6.5c0,0.8,0.3,1.4,1.4,1.4
		c1.8,0,3.6-3.5,4.2-6.3l0.8-4h2.8l-1.3,6.4c-0.2,1-0.3,1.7-0.3,2.3c0,1.6,0.6,2.4,0.9,3l-2.3,0.9c-0.5-0.6-0.9-1.4-0.9-2.5
		c0-0.5,0.1-1.2,0.2-2l-0.4,1c-1,2.3-2.7,3.5-4.7,3.5c-2.2,0-3.2-1.2-3.2-3.1c0-2.6,1.7-4.9,1.7-7.3C29.4,16.5,29.3,15.8,29.2,15.4z
		"/>
	<path class="st0" d="M49.5,18.1c-0.4-0.5-0.9-0.8-1.6-0.8c-0.9,0-1.9,1.9-2.4,3.8l-1.2,6.2h-2.8l1.3-6.4c0.2-1,0.3-1.8,0.3-2.5
		c0-1.8-0.5-2.6-0.6-2.8l2.3-0.9c0.4,0.5,0.7,1.1,0.7,2.1c0,0.7-0.2,1.6-0.2,2.4c0.7-3,1.8-4.5,3.7-4.5c1.1,0,1.8,0.4,2.2,1
		L49.5,18.1z"/>
	<path class="st0" d="M67.9,24.9c0,0.7,0.1,1.6,0.2,2.4h-2.8c-0.1-0.6-0.1-1.1-0.1-1.5c0-2.6,1.5-5.2,1.5-7.3c0-0.8-0.3-1.4-1.2-1.4
		c-1.5,0-3.2,3-3.7,5.7l-0.9,4.6h-2.8l1.3-6.4c0.2-1,0.3-2,0.3-2.5c0-0.8-0.3-1.4-1.2-1.4c-1.5,0-3.2,3-3.7,5.7l-0.9,4.6H51l1.3-6.4
		c0.2-1,0.3-1.8,0.3-2.5c0-1.8-0.5-2.6-0.6-2.8l2.3-0.9c0.4,0.5,0.7,1.1,0.7,2.1c0,0.7-0.2,1.6-0.2,2.3l0.4-1
		c0.9-2.3,2.5-3.5,4.3-3.5c2,0,3,1.1,3.1,2.9c1-1.9,2.3-2.9,4-2.9c2.1,0,3.2,1.2,3.2,3.1C69.6,20.5,67.9,22.9,67.9,24.9z"/>
	<path class="st0" d="M78.4,14.7c2.6,0,3.6,1.1,3.6,2.7c0,2.9-3.2,5-7.7,5.2c0,0.3,0,0.6,0,0.9c0,1.6,0.7,2.1,1.8,2.1
		c1.3,0,3.8-1,3.8-1l0.6,1.8c0,0-2.5,1.3-5,1.3c-3.2,0-4.2-2.1-4.2-4.2C71.3,18.6,73.9,14.7,78.4,14.7z M74.6,20.8
		c3-0.2,4.5-1.7,4.5-2.9c0-0.8-0.4-1.2-1.4-1.2C76.2,16.6,75.2,18.6,74.6,20.8z"/>
	<path class="st0" d="M82.9,15h2.5l1.1-3.2l2.4-0.5L88.2,15H91l-0.4,2h-2.9l-1.4,7.4c0,0.2-0.1,0.3-0.1,0.4c0,0.5,0.2,0.6,1,0.6
		c0.9,0,2.1-0.4,2.1-0.4v1.9c0,0-1.4,0.6-3.2,0.6c-2,0-2.8-0.8-2.8-2.1c0-0.2,0-0.5,0.1-0.7L85,17h-2.1V15z"/>
	<path class="st0" d="M100.3,17.1l-2.1,0.8c-0.3-0.6-0.4-1.3-1.4-1.3c-1.1,0-1.6,0.8-1.6,1.5c0,0.9,0.8,1.5,1.4,1.8l0.7,0.4
		c1.1,0.6,2.1,1.3,2.1,3.4c0,2.2-1.7,4-4.9,4c-2.1,0-4.1-1.2-4.1-1.2l1.1-2c0,0,1.8,1.2,3.1,1.2s1.9-0.7,1.9-1.4
		c0-1.1-0.7-1.6-1.5-2.1l-0.6-0.3c-0.8-0.4-2-1.1-2-3.3c0-2.1,1.6-3.8,4.7-3.8C99.1,14.7,100.1,15.8,100.3,17.1z"/>
</g>
<g>
	<path class="st1" d="M23.7,6.5C23.8,6,24,5,24.2,4.1c-0.4,0.9-1,1.9-1.3,2.3L21,9.6h-1l-0.7-3.2C19.1,6,19,5,18.8,4.1
		c-0.1,0.9-0.3,2-0.4,2.3l-0.7,3.2l-1.4-0.2l2-8.2h1.2l1,5.1c0.1,0.4,0.2,0.9,0.2,1.4c0.2-0.5,0.5-1,0.8-1.4l3-5.1h1.2l-0.9,8.3
		h-1.5L23.7,6.5z"/>
	<path class="st1" d="M26.6,7.7c0-2.4,1.3-4.2,3.5-4.2c0.3,0,0.8,0,1.5,0.3l0.8,0l-0.6,2.9c-0.1,0.5-0.1,0.8-0.1,1.2
		c0,0.8,0.3,1.2,0.4,1.5L31,9.8c-0.2-0.3-0.4-0.7-0.4-1.2c0-0.2,0-0.6,0.1-1L30.4,8c-0.6,1.3-1.3,1.7-2.2,1.7
		C27,9.7,26.6,8.7,26.6,7.7z M30.6,5.4l0.2-0.9c-0.2-0.1-0.5-0.1-0.7-0.1c-1.5,0-2,1.9-2,3.3c0,0.7,0.2,1,0.6,1
		C29.5,8.7,30.4,6.6,30.6,5.4z"/>
	<path class="st1" d="M37.1,5.1c-0.2-0.2-0.4-0.4-0.8-0.4c-0.5,0-0.9,0.9-1.2,1.9l-0.6,3.1h-1.4l0.6-3.1c0.1-0.5,0.1-0.9,0.1-1.2
		c0-0.9-0.2-1.3-0.3-1.4l1.1-0.4C34.9,3.6,35,4,35,4.5c0,0.3-0.1,0.8-0.1,1.2c0.3-1.5,0.9-2.2,1.8-2.2c0.6,0,0.9,0.2,1.1,0.5
		L37.1,5.1z"/>
	<path class="st1" d="M41.4,9.3c0,0-1,0.4-2,0.4c-1.6,0-2.1-1-2.1-2.1c0-2.3,1.2-4.3,3.5-4.3c0.9,0,1.3,0.6,1.5,1.2l-1,0.4
		c-0.1-0.3-0.2-0.6-0.7-0.6c-1.1,0-1.7,2-1.7,3.3c0,0.8,0.3,1,0.9,1c0.4,0,1.4-0.3,1.4-0.3L41.4,9.3z"/>
	<path class="st1" d="M45.1,2.7c-0.2,1-0.6,2-0.7,2.5c0.5-1.1,1.3-1.7,2.3-1.7c1.1,0,1.6,0.6,1.6,1.5c0,1.3-0.8,2.5-0.8,3.5
		c0,0.3,0,0.8,0.1,1.2h-1.4c0-0.3,0-0.5,0-0.7c0-1.3,0.7-2.5,0.7-3.6c0-0.4-0.2-0.7-0.7-0.7c-0.9,0-1.8,1.7-2.1,3.1l-0.4,2h-1.4
		l1.7-8.8l1.4-0.2L45.1,2.7z"/>
	<path class="st1" d="M52.6,3.4c1.3,0,1.8,0.5,1.8,1.3c0,1.4-1.6,2.5-3.8,2.6c0,0.1,0,0.3,0,0.4c0,0.8,0.4,1,0.9,1
		c0.6,0,1.9-0.5,1.9-0.5l0.3,0.9c0,0-1.3,0.6-2.5,0.6c-1.6,0-2.1-1-2.1-2.1C49.1,5.3,50.4,3.4,52.6,3.4z M50.8,6.4
		C52.2,6.3,53,5.5,53,5c0-0.4-0.2-0.6-0.7-0.6C51.6,4.3,51,5.3,50.8,6.4z M52.1,2.3c0,0,1.2-1.6,2.2-2.3c0,0,0.6,0.4,0.8,0.9
		c-0.9,0.6-2.4,2.1-2.4,2.1L52.1,2.3z"/>
	<path class="st1" d="M62.8,6.7c-0.1,0.5-0.1,0.9-0.1,1.2c0,0.8,0.3,1.2,0.4,1.5L62,9.8c-0.2-0.3-0.4-0.7-0.4-1.2c0-0.2,0-0.6,0.1-1
		L61.4,8c-0.6,1.3-1.3,1.7-2.2,1.7c-1.2,0-1.7-1-1.7-2.1c0-2.4,1.3-4.2,3.5-4.2c0.2,0,0.5,0,0.9,0.1l0.5-2.7L64,0.6L62.8,6.7z
		 M61.6,5.4l0.2-0.9c-0.2-0.1-0.5-0.1-0.7-0.1c-1.5,0-2,1.9-2,3.3c0,0.7,0.2,1,0.6,1C60.5,8.7,61.4,6.6,61.6,5.4z"/>
	<path class="st1" d="M67.5,3.4c1.3,0,1.8,0.5,1.8,1.3c0,1.4-1.6,2.5-3.8,2.6c0,0.1,0,0.3,0,0.4c0,0.8,0.4,1,0.9,1
		c0.6,0,1.9-0.5,1.9-0.5l0.3,0.9c0,0-1.3,0.6-2.5,0.6c-1.6,0-2.1-1-2.1-2.1C64,5.3,65.3,3.4,67.5,3.4z M65.6,6.4
		c1.5-0.1,2.2-0.9,2.2-1.4c0-0.4-0.2-0.6-0.7-0.6C66.4,4.3,65.9,5.3,65.6,6.4z"/>
	<path class="st1" d="M74.1,4.6L73,5c-0.1-0.3-0.2-0.6-0.7-0.6c-0.6,0-0.8,0.4-0.8,0.7c0,0.5,0.4,0.7,0.7,0.9l0.4,0.2
		c0.5,0.3,1,0.6,1,1.7c0,1.1-0.8,2-2.4,2c-1.1,0-2-0.6-2-0.6l0.5-1c0,0,0.9,0.6,1.5,0.6s0.9-0.3,0.9-0.7c0-0.6-0.4-0.8-0.8-1
		l-0.3-0.2c-0.4-0.2-1-0.5-1-1.6c0-1.1,0.8-1.9,2.3-1.9C73.4,3.4,73.9,3.9,74.1,4.6z"/>
</g>
<line class="st2" x1="16.3" y1="11.5" x2="74" y2="11.5"/>
</svg>
